<svg width="19" height="19" fill="none" xmlns="http://www.w3.org/2000/svg"><path d="M9.395 1.78c-4.317 0-7.83 3.513-7.83 7.83s3.513 7.829 7.83 7.829 7.829-3.512 7.829-7.83c0-4.316-3.512-7.829-7.83-7.829ZM3.13 9.61c0-.704.122-1.38.338-2.012l1.228 1.229 1.566 1.566v1.565l1.566 1.566.783.783v1.512c-3.084-.388-5.48-3.021-5.48-6.21Zm11.22 3.815c-.512-.412-1.287-.684-1.825-.684v-.783a1.566 1.566 0 0 0-1.566-1.566H7.83V8.044a1.566 1.566 0 0 0 1.566-1.566v-.783h.783a1.566 1.566 0 0 0 1.565-1.566v-.322a6.27 6.27 0 0 1 3.915 5.803c0 1.381-.46 2.723-1.307 3.815Z" fill="url('#paint0_linear_12_693')"/><defs><linearGradient id="paint0_linear_12_693" x1="9.395" y1="1.78" x2="9.395" y2="17.439" gradientUnits="userSpaceOnUse"><stop stop-color="#0255D1"/><stop offset="1" stop-color="#00D1FF"/></linearGradient></defs></svg>