<svg width="22" height="22" fill="none" xmlns="http://www.w3.org/2000/svg"><path d="M10.999 1.833c-5.055 0-9.167 4.112-9.167 9.167s4.112 9.167 9.167 9.167c5.054 0 9.166-4.113 9.166-9.167 0-5.055-4.112-9.167-9.166-9.167ZM3.665 11c0-.824.143-1.615.395-2.355L5.5 10.083l1.833 1.834v1.833l1.833 1.833.917.917v1.77c-3.61-.454-6.417-3.537-6.417-7.27Zm13.136 4.467c-.598-.482-1.506-.8-2.136-.8v-.917a1.833 1.833 0 0 0-1.833-1.833H9.165v-2.75A1.833 1.833 0 0 0 11 7.333v-.916h.916a1.833 1.833 0 0 0 1.834-1.834v-.376c2.684 1.09 4.583 3.722 4.583 6.793 0 1.618-.539 3.19-1.53 4.467Z" fill="url('#paint0_linear_211_664')"/><defs><linearGradient id="paint0_linear_211_664" x1="10.999" y1="1.833" x2="10.999" y2="20.167" gradientUnits="userSpaceOnUse"><stop stop-color="#0255D1"/><stop offset="1" stop-color="#00D1FF"/></linearGradient></defs></svg>