<svg width="28" height="27" fill="none" xmlns="http://www.w3.org/2000/svg"><path d="M10.441 10.947a.592.592 0 1 0 1.185 0V9.762a.593.593 0 0 0-1.185 0v1.185Zm0 0a5.927 5.927 0 0 0 5.923 5.926m0 0h1.185a.592.592 0 1 0 0-1.185h-1.184a.592.592 0 1 0 0 1.185ZM3.333 23.984l1.955-4.504A10.67 10.67 0 0 1 6.822 5.454a10.66 10.66 0 0 1 17.737 6.375 10.67 10.67 0 0 1-7.738 11.796 10.658 10.658 0 0 1-7.505-.707l-5.983 1.066Z" stroke="#fff" stroke-width="1.667" stroke-linecap="round" stroke-linejoin="round"/></svg>