<svg width="25" height="25" fill="none" xmlns="http://www.w3.org/2000/svg"><path d="M22.15 12.51H9.665m-4.406 0H3.457m1.803 0a2.203 2.203 0 1 1 4.405 0 2.203 2.203 0 0 1-4.405 0Zm16.89 6.675h-5.808m0 0a2.205 2.205 0 0 1-2.204 2.204 2.203 2.203 0 0 1-2.203-2.204m4.407 0a2.203 2.203 0 0 0-4.407 0m0 0H3.457M22.149 5.834h-3.137m-4.406 0H3.457m11.149 0a2.203 2.203 0 1 1 4.406 0 2.203 2.203 0 0 1-4.406 0Z" stroke="url('#paint0_linear_120_1106')" stroke-width="1.516" stroke-miterlimit="10" stroke-linecap="round"/><defs><linearGradient id="paint0_linear_120_1106" x1="12.803" y1="3.631" x2="12.803" y2="21.389" gradientUnits="userSpaceOnUse"><stop stop-color="#0255D1"/><stop offset="1" stop-color="#00D1FF"/></linearGradient></defs></svg>