<svg width="75" height="40" fill="none" xmlns="http://www.w3.org/2000/svg"><g filter="url('#filter0_d_146_2682')"><rect x="40.855" y="6" width="28.145" height="28.145" rx="14.072" fill="#0255D1"/><rect x="41.265" y="6.41" width="27.325" height="27.325" rx="13.662" stroke="#1C1C1C" stroke-width=".82"/></g><path d="M53.126 16.527a.666.666 0 0 0 0 .945l2.6 2.6-2.6 2.6a.668.668 0 1 0 .945.945l3.075-3.076a.669.669 0 0 0 0-.945l-3.075-3.076a.673.673 0 0 0-.945.007Z" fill="#fff"/><g filter="url('#filter1_d_146_2682')"><rect x="34.145" y="34.145" width="28.145" height="28.145" rx="14.072" transform="rotate(180 34.145 34.145)" fill="#0255D1"/><rect x="33.735" y="33.735" width="27.325" height="27.325" rx="13.662" transform="rotate(180 33.735 33.735)" stroke="#1C1C1C" stroke-width=".82"/></g><path d="M19.874 23.618a.667.667 0 0 0 0-.945l-2.6-2.6 2.6-2.6a.668.668 0 1 0-.944-.945l-3.076 3.076a.669.669 0 0 0 0 .945l3.076 3.075a.673.673 0 0 0 .944-.006Z" fill="#fff"/><defs><filter id="filter0_d_146_2682" x="35.439" y=".583" width="38.978" height="38.978" filterUnits="userSpaceOnUse" color-interpolation-filters="sRGB"><feFlood flood-opacity="0" result="BackgroundImageFix"/><feColorMatrix in="SourceAlpha" values="0 0 0 0 0 0 0 0 0 0 0 0 0 0 0 0 0 0 127 0" result="hardAlpha"/><feOffset/><feGaussianBlur stdDeviation="2.708"/><feComposite in2="hardAlpha" operator="out"/><feColorMatrix values="0 0 0 0 0 0 0 0 0 0.368627 0 0 0 0 1 0 0 0 0.1 0"/><feBlend in2="BackgroundImageFix" result="effect1_dropShadow_146_2682"/><feBlend in="SourceGraphic" in2="effect1_dropShadow_146_2682" result="shape"/></filter><filter id="filter1_d_146_2682" x=".583" y=".583" width="38.978" height="38.978" filterUnits="userSpaceOnUse" color-interpolation-filters="sRGB"><feFlood flood-opacity="0" result="BackgroundImageFix"/><feColorMatrix in="SourceAlpha" values="0 0 0 0 0 0 0 0 0 0 0 0 0 0 0 0 0 0 127 0" result="hardAlpha"/><feOffset/><feGaussianBlur stdDeviation="2.708"/><feComposite in2="hardAlpha" operator="out"/><feColorMatrix values="0 0 0 0 0 0 0 0 0 0.368627 0 0 0 0 1 0 0 0 0.1 0"/><feBlend in2="BackgroundImageFix" result="effect1_dropShadow_146_2682"/><feBlend in="SourceGraphic" in2="effect1_dropShadow_146_2682" result="shape"/></filter></defs></svg>