<svg width="1424" height="1430" fill="none" xmlns="http://www.w3.org/2000/svg"><g opacity=".1" filter="url('#filter0_d_8_957')"><path d="M913.53 1107.03c-.181 0-.365-.03-.546-.09L310.353 896.024a1.653 1.653 0 0 1-1.017-2.109l199.539-570.122a1.656 1.656 0 0 1 2.109-1.014l602.636 210.915c.41.145.75.448.94.845.19.395.22.85.07 1.265L915.093 1105.92a1.647 1.647 0 0 1-1.563 1.11ZM313.008 893.447l599.507 209.823 198.445-566.999-599.507-209.822-198.445 566.998Z" fill="url('#paint0_linear_8_957')"/><path d="M905.587 1126.12c-.203 0-.407-.04-.601-.12L291.682 887.015a1.653 1.653 0 0 1-.94-2.142l226.097-580.217a1.658 1.658 0 0 1 2.142-.941l613.299 238.988c.85.332 1.27 1.291.94 2.143L907.128 1125.06a1.67 1.67 0 0 1-.876.92c-.211.09-.439.14-.665.14ZM294.426 884.532l610.22 237.788 224.894-577.134L519.322 307.4 294.426 884.532Z" fill="url('#paint1_linear_8_957')"/><path d="M896.714 1145.49c-.219 0-.44-.04-.653-.13L272.775 877.063a1.66 1.66 0 0 1-.865-2.175l253.822-589.663a1.651 1.651 0 0 1 2.174-.865l623.284 268.296c.84.362 1.23 1.334.87 2.174l-253.823 589.66c-.27.63-.882 1-1.523 1ZM275.602 874.677l620.247 266.983 252.511-586.619-620.242-266.987-252.516 586.623Z" fill="url('#paint2_linear_8_957')"/><path d="M886.879 1165.14c-.243 0-.483-.06-.706-.16L253.654 866.128a1.654 1.654 0 0 1-.79-2.202l282.728-598.398a1.659 1.659 0 0 1 2.203-.789L1170.31 563.59c.83.39 1.18 1.377.79 2.203L888.376 1164.19c-.187.4-.525.7-.94.85-.181.07-.368.1-.557.1ZM256.562 863.843 886.09 1161.28l281.31-595.404-629.523-297.438-281.315 595.405Z" fill="url('#paint3_linear_8_957')"/><path d="M876.035 1185.02c-.254 0-.514-.05-.756-.18L234.347 854.176a1.649 1.649 0 0 1-.711-2.228l312.826-606.357a1.656 1.656 0 0 1 2.228-.712l640.93 330.664c.81.419 1.13 1.418.71 2.229L877.507 1184.13c-.294.57-.872.89-1.472.89ZM237.336 851.995l637.989 329.145 311.305-603.415-637.985-329.147-311.309 603.417Z" fill="url('#paint4_linear_8_957')"/><path d="M864.152 1205.12c-.282 0-.561-.07-.809-.21L214.886 841.168a1.655 1.655 0 0 1-.633-2.253l344.119-613.473a1.652 1.652 0 0 1 2.253-.634l648.455 363.743c.8.446 1.08 1.455.63 2.252L865.595 1204.28a1.66 1.66 0 0 1-1.443.84ZM217.949 839.092l645.569 362.118 342.502-610.583-645.572-362.123-342.499 610.588Z" fill="url('#paint5_linear_8_957')"/><path d="M851.182 1225.4c-.293 0-.59-.08-.858-.24L195.306 827.067a1.656 1.656 0 0 1-.554-2.274l376.62-619.68a1.654 1.654 0 0 1 2.274-.555l655.014 398.095a1.66 1.66 0 0 1 .56 2.273L852.597 1224.61c-.312.51-.856.79-1.415.79ZM198.439 825.098l652.189 396.372 374.902-616.848-652.19-396.376-374.901 616.852Z" fill="url('#paint6_linear_8_957')"/><path d="M837.089 1245.83c-.312 0-.627-.09-.906-.27L175.642 811.834a1.655 1.655 0 0 1-.475-2.292l410.326-624.906a1.66 1.66 0 0 1 2.292-.475l660.545 433.723c.36.241.62.616.71 1.046.09.43 0 .878-.24 1.244L838.475 1245.08c-.319.49-.848.75-1.386.75ZM178.841 809.977l657.775 431.903 408.504-622.136-657.768-431.909-408.511 622.142Z" fill="url('#paint7_linear_8_957')"/><path d="M821.838 1266.37c-.339 0-.674-.11-.956-.3L155.931 795.435a1.658 1.658 0 0 1-.395-2.307L600.78 164.049a1.655 1.655 0 0 1 2.307-.395l664.953 470.63c.35.253.6.639.67 1.072.08.432-.02.876-.28 1.235L823.189 1265.67c-.253.36-.639.6-1.072.67a1.31 1.31 0 0 1-.279.03ZM159.194 793.689l662.251 468.721 443.325-626.38-662.246-468.718-443.33 626.377Z" fill="url('#paint8_linear_8_957')"/><path d="M805.383 1286.98c-.36 0-.713-.12-1.001-.34L136.215 777.829a1.66 1.66 0 0 1-.638-1.095 1.665 1.665 0 0 1 .323-1.224l481.366-632.12a1.653 1.653 0 0 1 2.319-.314l668.165 508.815c.73.553.87 1.592.31 2.319L806.7 1286.33a1.66 1.66 0 0 1-1.097.64c-.072.01-.146.01-.22.01ZM139.535 776.197 805.07 1283.01l479.36-629.489L618.898 146.71 139.535 776.197Z" fill="url('#paint9_linear_8_957')"/><path d="M787.687 1307.63c-.38 0-.751-.13-1.046-.38L116.538 758.982a1.652 1.652 0 0 1-.232-2.328l518.692-633.956a1.655 1.655 0 0 1 2.329-.232l670.103 548.271c.71.578.81 1.622.23 2.327L788.969 1307.02c-.278.34-.68.55-1.117.6-.055 0-.109.01-.165.01ZM119.912 757.468l667.543 546.172 516.595-631.39-667.539-546.175-516.599 631.393Z" fill="url('#paint10_linear_8_957')"/><path d="M768.713 1328.26a1.64 1.64 0 0 1-1.093-.41L96.941 738.856a1.655 1.655 0 0 1-.15-2.335L654.01 102.02a1.653 1.653 0 0 1 2.334-.15l670.686 588.993c.33.29.53.698.56 1.137.02.437-.12.87-.41 1.199L769.956 1327.7c-.29.33-.698.53-1.136.56h-.107ZM100.368 737.462l668.194 586.808L1323.6 692.257 655.403 105.448 100.368 737.462Z" fill="url('#paint11_linear_8_957')"/><path d="M748.424 1348.84c-.422 0-.828-.16-1.134-.45L77.478 717.418a1.654 1.654 0 0 1-.07-2.339L674.34 81.401c.3-.32.716-.507 1.154-.52.462-.032.865.149 1.185.449L1346.49 712.3c.32.302.5.717.52 1.155.01.439-.15.864-.45 1.184L749.627 1348.32c-.3.32-.716.5-1.153.52h-.05ZM80.95 716.144l667.403 628.696 594.667-631.265-667.407-628.7L80.95 716.143Z" fill="url('#paint12_linear_8_957')"/><path d="M726.777 1369.31c-.395.05-.864-.18-1.176-.49L58.195 694.63a1.654 1.654 0 0 1 .014-2.34l637.817-631.4c.312-.31.626-.474 1.172-.48.44.003.859.178 1.168.49l667.404 674.189c.65.649.64 1.697-.01 2.34L727.939 1368.83c-.307.31-.726.48-1.162.48ZM61.711 693.478l665.076 671.832 635.463-629.071L697.178 64.404 61.711 693.478Z" fill="url('#paint13_linear_8_957')"/><path d="M703.739 1389.62c-.446 0-.891-.18-1.215-.53L39.153 670.461a1.657 1.657 0 0 1 .092-2.339L719.106 40.536a1.754 1.754 0 0 1 1.19-.437c.437.016.851.208 1.148.53l663.366 718.629c.62.671.58 1.719-.09 2.338L704.862 1389.18c-.318.29-.72.44-1.123.44ZM42.705 669.431l661.127 716.199 677.428-625.342L720.136 44.091l-677.43 625.34Z" fill="url('#paint14_linear_8_957')"/><path d="M679.271 1409.72c-.464 0-.927-.2-1.254-.58L20.401 644.874a1.657 1.657 0 0 1 .173-2.334L743.616 20.402a1.653 1.653 0 0 1 2.334.174l657.62 764.27c.28.333.42.766.39 1.203-.03.437-.24.844-.57 1.131l-723.039 622.14c-.312.27-.697.4-1.08.4ZM23.989 643.969l655.457 761.761 720.534-619.98L744.52 23.989 23.99 643.969Z" fill="url('#paint15_linear_8_957')"/></g><defs><linearGradient id="paint0_linear_8_957" x1="601.459" y1="415.016" x2="546.556" y2="1042.9" gradientUnits="userSpaceOnUse"><stop stop-color="#151617"/><stop offset=".465" stop-color="#0255D1"/><stop offset="1" stop-color="#151515"/></linearGradient><linearGradient id="paint1_linear_8_957" x1="596.348" y1="400.424" x2="538.642" y2="1058.84" gradientUnits="userSpaceOnUse"><stop stop-color="#151617"/><stop offset=".465" stop-color="#0255D1"/><stop offset="1" stop-color="#151515"/></linearGradient><linearGradient id="paint2_linear_8_957" x1="591.176" y1="385.609" x2="530.616" y2="1075.02" gradientUnits="userSpaceOnUse"><stop stop-color="#151617"/><stop offset=".465" stop-color="#0255D1"/><stop offset="1" stop-color="#151515"/></linearGradient><linearGradient id="paint3_linear_8_957" x1="585.942" y1="370.59" x2="522.482" y2="1091.43" gradientUnits="userSpaceOnUse"><stop stop-color="#151617"/><stop offset=".465" stop-color="#0255D1"/><stop offset="1" stop-color="#151515"/></linearGradient><linearGradient id="paint4_linear_8_957" x1="580.659" y1="355.386" x2="514.256" y2="1108.04" gradientUnits="userSpaceOnUse"><stop stop-color="#151617"/><stop offset=".465" stop-color="#0255D1"/><stop offset="1" stop-color="#151515"/></linearGradient><linearGradient id="paint5_linear_8_957" x1="575.331" y1="340.018" x2="505.946" y2="1124.82" gradientUnits="userSpaceOnUse"><stop stop-color="#151617"/><stop offset=".465" stop-color="#0255D1"/><stop offset="1" stop-color="#151515"/></linearGradient><linearGradient id="paint6_linear_8_957" x1="569.972" y1="324.513" x2="497.57" y2="1141.75" gradientUnits="userSpaceOnUse"><stop stop-color="#151617"/><stop offset=".465" stop-color="#0255D1"/><stop offset="1" stop-color="#151515"/></linearGradient><linearGradient id="paint7_linear_8_957" x1="564.588" y1="308.896" x2="489.14" y2="1158.8" gradientUnits="userSpaceOnUse"><stop stop-color="#151617"/><stop offset=".465" stop-color="#0255D1"/><stop offset="1" stop-color="#151515"/></linearGradient><linearGradient id="paint8_linear_8_957" x1="559.193" y1="293.192" x2="480.671" y2="1175.95" gradientUnits="userSpaceOnUse"><stop stop-color="#151617"/><stop offset=".465" stop-color="#0255D1"/><stop offset="1" stop-color="#151515"/></linearGradient><linearGradient id="paint9_linear_8_957" x1="553.793" y1="277.431" x2="472.178" y2="1193.15" gradientUnits="userSpaceOnUse"><stop stop-color="#151617"/><stop offset=".465" stop-color="#0255D1"/><stop offset="1" stop-color="#151515"/></linearGradient><linearGradient id="paint10_linear_8_957" x1="548.407" y1="261.646" x2="463.684" y2="1210.38" gradientUnits="userSpaceOnUse"><stop stop-color="#151617"/><stop offset=".465" stop-color="#0255D1"/><stop offset="1" stop-color="#151515"/></linearGradient><linearGradient id="paint11_linear_8_957" x1="543.041" y1="245.869" x2="455.201" y2="1227.6" gradientUnits="userSpaceOnUse"><stop stop-color="#151617"/><stop offset=".465" stop-color="#0255D1"/><stop offset="1" stop-color="#151515"/></linearGradient><linearGradient id="paint12_linear_8_957" x1="537.712" y1="230.135" x2="446.751" y2="1244.77" gradientUnits="userSpaceOnUse"><stop stop-color="#151617"/><stop offset=".465" stop-color="#0255D1"/><stop offset="1" stop-color="#151515"/></linearGradient><linearGradient id="paint13_linear_8_957" x1="532.431" y1="214.487" x2="438.354" y2="1261.85" gradientUnits="userSpaceOnUse"><stop stop-color="#151617"/><stop offset=".465" stop-color="#0255D1"/><stop offset="1" stop-color="#151515"/></linearGradient><linearGradient id="paint14_linear_8_957" x1="527.215" y1="198.957" x2="430.035" y2="1278.79" gradientUnits="userSpaceOnUse"><stop stop-color="#151617"/><stop offset=".465" stop-color="#0255D1"/><stop offset="1" stop-color="#151515"/></linearGradient><linearGradient id="paint15_linear_8_957" x1="522.08" y1="183.591" x2="421.815" y2="1295.55" gradientUnits="userSpaceOnUse"><stop stop-color="#151617"/><stop offset=".465" stop-color="#0255D1"/><stop offset="1" stop-color="#151515"/></linearGradient><filter id="filter0_d_8_957" x="0" y="0" width="1423.97" height="1429.72" filterUnits="userSpaceOnUse" color-interpolation-filters="sRGB"><feFlood flood-opacity="0" result="BackgroundImageFix"/><feColorMatrix in="SourceAlpha" values="0 0 0 0 0 0 0 0 0 0 0 0 0 0 0 0 0 0 127 0" result="hardAlpha"/><feOffset/><feGaussianBlur stdDeviation="10"/><feComposite in2="hardAlpha" operator="out"/><feColorMatrix values="0 0 0 0 0.00818321 0 0 0 0 0.332243 0 0 0 0 0.818333 0 0 0 0.2 0"/><feBlend in2="BackgroundImageFix" result="effect1_dropShadow_8_957"/><feBlend in="SourceGraphic" in2="effect1_dropShadow_8_957" result="shape"/></filter></defs></svg>