<svg width="20" height="19" fill="none" xmlns="http://www.w3.org/2000/svg"><path d="M16.358 16.21a.587.587 0 0 1-.514.305H12.32a.589.589 0 0 1-.496-.272l-2.972-4.67-4.318 4.75a.587.587 0 0 1-.87-.79l4.534-4.99-4.594-7.217a.587.587 0 0 1 .495-.903h3.523a.587.587 0 0 1 .496.272l2.972 4.67 4.318-4.75a.587.587 0 0 1 .87.79l-4.534 4.987 4.594 7.221a.587.587 0 0 1 .019.598Z" fill="url('#paint0_linear_5_193')"/><defs><linearGradient id="paint0_linear_5_193" x1="9.972" y1="2.423" x2="9.972" y2="16.515" gradientUnits="userSpaceOnUse"><stop stop-color="#0255D1"/><stop offset="1" stop-color="#00D1FF"/></linearGradient></defs></svg>