<svg width="22" height="22" fill="none" xmlns="http://www.w3.org/2000/svg"><path d="M18.477 18.893a.687.687 0 0 1-.602.357H13.75a.687.687 0 0 1-.58-.319l-3.48-5.468-5.056 5.562a.687.687 0 0 1-1.017-.925l5.308-5.844-5.38-8.449a.687.687 0 0 1 .58-1.057H8.25a.687.687 0 0 1 .58.319l3.48 5.468 5.057-5.562a.687.687 0 0 1 1.017.925l-5.308 5.84 5.38 8.454a.688.688 0 0 1 .02.7Z" fill="url('#paint0_linear_211_669')"/><defs><linearGradient id="paint0_linear_211_669" x1="11" y1="2.75" x2="11" y2="19.25" gradientUnits="userSpaceOnUse"><stop stop-color="#0255D1"/><stop offset="1" stop-color="#00D1FF"/></linearGradient></defs></svg>