<svg width="27" height="27" fill="none" xmlns="http://www.w3.org/2000/svg"><path d="m13.548 19.499 5.124 3.253c.661.417 1.474-.203 1.281-.966L18.47 15.95a.885.885 0 0 1 .295-.894l4.595-3.834c.6-.498.295-1.504-.488-1.555l-5.998-.387a.844.844 0 0 1-.743-.549L13.893 3.1a.844.844 0 0 0-1.586 0L10.07 8.73a.845.845 0 0 1-.742.55l-5.999.386c-.782.05-1.088 1.057-.488 1.555l4.596 3.834a.884.884 0 0 1 .295.894l-1.373 5.41c-.234.915.743 1.657 1.525 1.159l4.769-3.02a.833.833 0 0 1 .895 0Z" fill="#FA8232"/></svg>