<svg width="27" height="27" fill="none" xmlns="http://www.w3.org/2000/svg"><path d="m13.518 19.499 5.125 3.253c.66.417 1.474-.203 1.281-.966l-1.485-5.836a.885.885 0 0 1 .295-.894l4.596-3.834c.6-.498.295-1.504-.488-1.555l-5.999-.387a.844.844 0 0 1-.742-.549L13.864 3.1a.844.844 0 0 0-1.586 0L10.041 8.73a.844.844 0 0 1-.742.55L3.3 9.666c-.783.05-1.088 1.057-.488 1.555l4.596 3.834a.884.884 0 0 1 .295.894L6.33 21.36c-.234.915.742 1.657 1.525 1.159l4.769-3.02a.833.833 0 0 1 .894 0Z" fill="#FA8232"/></svg>